<svg xmlns:rdf="http://www.w3.org/1999/02/22-rdf-syntax-ns#" xmlns="http://www.w3.org/2000/svg" xmlns:cc="http://creativecommons.org/ns#" xmlns:dc="http://purl.org/dc/elements/1.1/" xmlns:svg="http://www.w3.org/2000/svg" id="svg2" viewBox="0 0 624.51 624.51" version="1.0">
  <title id="title3521">45 RPM Single</title>
  <g id="layer1" transform="translate(-59.794 -213.92)">
    <g id="g3496" stroke-linejoin="round" stroke-linecap="round" stroke-miterlimit="3.8" transform="translate(26.063 125.64)">
      <path id="path3483" stroke="#000" stroke-width=".6" d="m341.94 88.594c-170.35 2.16-307.91 141.09-307.91 311.94 0 172.2 139.74 311.97 311.94 311.97s311.97-139.77 311.97-311.97-139.77-311.94-311.97-311.94c-1.3453 0-2.6899-0.01701-4.0312 0zm4.03 299.66c6.7861 0 12.312 5.4952 12.312 12.281 0 6.7861-5.5264 12.312-12.312 12.312-6.7861 0-12.281-5.5264-12.281-12.312 0-6.7861 5.4952-12.281 12.281-12.281z"/>
      <path id="path2694" d="m225.41 272.48c68.543-8.13 132.53 42.441 140.66 110.95 8.1599 68.8-42.601 133.03-111.36 141.18-69.057 8.1897-133.52-42.761-141.71-111.78-8.2196-69.314 42.921-134.02 112.2-142.24 69.571-8.2494 134.52 43.08 142.76 112.61 8.2792 69.827-43.24 135.01-113.03 143.29-70.084 8.3091-135.51-43.4-143.81-113.45-8.3389-70.341 43.56-136.01 113.86-144.34 70.598-8.3687 136.5 43.72 144.87 114.28 8.3986 70.855-43.88 137-114.7 145.39-71.111 8.4284-137.5-44.04-145.92-115.11-8.4582-71.368 44.199-137.99 115.53-146.45 71.625-8.4881 138.49 44.359 146.97 115.95 8.5179 71.882-44.519 138.99-116.36 147.5-72.139 8.5478-139.48-44.679-148.02-116.78-8.5776-72.395 44.839-139.98 117.2-148.55 72.652-8.6074 140.47 44.999 149.08 117.61 8.6373 72.909-45.159 140.97-118.03 149.6-73.166 8.6671-141.47-45.318-150.13-118.45-8.697-73.423 45.478-141.96 118.86-150.66 73.68-8.7268 142.46 45.638 151.18 119.28 8.7566 73.936-45.798 142.96-119.7 151.71-74.21 8.81-143.47-45.94-152.25-120.09-8.813-74.45 46.12-143.95 120.53-152.76 74.707-8.8461 144.45 46.278 153.29 120.95 8.876 74.964-46.437 144.94-121.36 153.81-75.22 8.9-145.44-46.6-154.34-121.78-8.938-75.48 46.75-145.94 122.19-154.87 75.734-8.9655 146.43 46.917 155.39 122.61 8.9953 75.991-47.077 146.93-123.03 155.92-76.24 9.03-147.42-47.23-156.44-123.44-9.053-76.51 47.4-147.92 123.86-156.97 76.761-9.0848 148.42 47.556 157.5 124.28 9.1147 77.018-47.716 148.91-124.7 158.02-77.27 9.14-149.4-47.88-158.54-125.11-9.178-77.54 48.03-149.91 125.53-159.08 77.788-9.2042 150.4 48.196 159.6 125.95 9.234 78.045-48.356 150.9-126.36 160.13-78.31 9.26-151.4-48.52-160.66-126.78-9.293-78.56 48.68-151.9 127.2-161.18 78.816-9.3235 152.39 48.835 161.71 127.61 9.3534 79.073-48.995 152.88-128.03 162.23-79.329 9.3832-153.38-49.155-162.76-128.45-9.4131-79.586 49.315-153.88 128.86-163.28 79.843-9.4429 154.37 49.475 163.81 129.28 9.4727 80.1-49.635 154.87-129.7 164.34-80.35 9.5-155.36-49.8-164.86-130.12-9.533-80.61 49.95-155.86 130.53-165.39 80.87-9.56 156.36 50.12 165.91 130.95 9.6 81.13-50.27 156.85-131.36 166.44-81.38 9.62-157.35-50.43-166.97-131.78-9.649-81.64 50.6-157.85 132.2-167.49 81.897-9.6816 158.34 50.754 168.02 132.61 9.7114 82.154-50.913 158.84-133.03 168.55-82.41 9.74-159.34-51.08-169.07-133.45-9.774-82.67 51.23-159.83 133.86-169.6 82.925-9.801 160.33 51.393 170.13 134.28 9.8308 83.182-51.553 160.83-134.7 170.65-83.438 9.8606-161.32-51.713-171.18-135.11-9.8905-83.695 51.873-161.82 135.53-171.7 83.952-9.9203 162.32 52.032 172.23 135.95 9.9501 84.209-52.192 162.81-136.36 172.76-84.47 9.97-163.31-52.36-173.28-136.79-10.014-84.72 52.51-163.8 137.19-173.81 84.98-10.04 164.3 52.67 174.34 137.61 10.07 85.24-52.83 164.8-138.03 174.86-85.5 10.1-165.3-52.99-175.39-138.44-10.129-85.75 53.15-165.79 138.86-175.91 86.006-10.159 166.29 53.311 176.44 139.28 10.189 86.263-53.471 166.78-139.7 176.97-86.51 10.21-167.27-53.64-177.49-140.12-10.244-86.78 53.8-167.78 140.53-178.02 87.04-10.28 168.28 53.95 178.55 140.95 10.31 87.29-54.11 168.76-141.36 179.07-87.55 10.33-169.27-54.27-179.6-141.78-10.369-87.81 54.43-169.76 142.19-180.13 88.07-10.39 170.26 54.59 180.65 142.62 10.43 88.31-54.75 170.75-143.02 181.17-88.58 10.46-171.26-54.91-181.71-143.44-10.485-88.84 55.07-171.75 143.87-182.23 89.08-10.52 172.24 55.23 182.75 144.28 10.55 89.34-55.39 172.74-144.7 183.28-89.6 10.57-173.23-55.55-183.8-145.11-10.61-89.86 55.71-173.74 145.53-184.34 90.11-10.63 174.22 55.87 184.86 145.95 10.66 90.37-56.03 174.72-146.37 185.38-90.63 10.7-175.22-56.18-185.91-146.78-10.725-90.88 56.35-175.71 147.2-186.43 91.14-10.76 176.21 56.5 186.96 147.61 10.79 91.4-56.67 176.71-148.03 187.49-91.65 10.82-177.2-56.83-188.02-148.45-10.84-91.91 56.99-177.7 148.87-188.54 92.17-10.87 178.2 57.15 189.07 149.28 10.9 92.43-57.31 178.7-149.7 189.6-92.68 10.93-179.19-57.47-190.12-150.12-10.965-92.94 57.63-179.69 150.53-190.65 93.2-10.99 180.18 57.79 191.17 150.95 11.03 93.45-57.94 180.68-151.36 191.7-93.71 11.06-181.18-58.11-192.23-151.78-11.08-93.97 58.27-181.67 152.2-192.75 94.22-11.11 182.17 58.43 193.28 152.61 11.14 94.48-58.59 182.67-153.03 193.81-94.74 11.17-183.16-58.75-194.33-153.45-11.205-94.99 58.9-183.66 153.86-194.86 95.252-11.233 184.16 59.066 195.38 154.28 11.263 95.509-59.226 184.65-154.7 195.91-95.76 11.3-185.14-59.38-196.43-155.11-11.32-96.02 59.55-185.65 155.53-196.96 96.28-11.36 186.14 59.7 197.49 155.94 11.38 96.54-59.86 186.64-156.36 198.02-96.79 11.41-187.14-60.03-198.54-156.78-11.446-97.05 60.18-187.63 157.19-199.07 97.306-11.472 188.13 60.345 199.59 157.61 11.502 97.563-60.505 188.62-158.03 200.12-97.81 11.54-189.11-60.66-200.64-158.44-11.561-98.08 60.83-189.62 158.86-201.17 98.333-11.591 190.11 60.984 201.7 159.28 11.621 98.59-61.144 190.61-159.7 202.23-98.84 11.64-191.1-61.31-202.74-160.12-11.686-99.11 61.46-191.6 160.52-203.28 99.36-11.71 192.1 61.62 203.81 160.95 11.74 99.61-61.79 192.59-161.36 204.33-99.88 11.77-193.1-61.95-204.86-161.78-11.801-100.13 62.1-193.59 162.2-205.39 100.38-11.83 194.08 62.27 205.9 162.62 11.86 100.64-62.42 194.58-163.03 206.43-100.9 11.89-195.07-62.58-206.96-163.44-11.916-101.16 62.75-195.58 163.87-207.49 101.41-11.95 196.07 62.9 208.01 164.28 11.98 101.67-63.06 196.56-164.7 208.54-101.93 12.01-197.06-63.22-209.06-165.12-12.041-102.18 63.38-197.55 165.53-209.59 102.44-12.07 198.05 63.54 210.12 165.95 12.09 102.7-63.71 198.55-166.37 210.64-102.95 12.13-199.04-63.86-211.17-166.78-12.156-103.21 64.02-199.54 167.2-211.69 103.47-12.19 200.04 64.18 212.22 167.61 12.22 103.73-64.34 200.54-168.03 212.75-103.98 12.25-201.03-64.5-213.27-168.45-12.282-104.24 64.66-201.53 168.86-213.8 104.5-12.31 202.02 64.82 214.33 169.28 12.33 104.75-64.98 202.52-169.7 214.85-105.01 12.37-203.02-65.14-215.38-170.11-12.397-105.27 65.3-203.51 170.53-215.9 105.52-12.43 204.01 65.46 216.43 170.94 12.46 105.78-65.62 204.51-171.36 216.96-106.04 12.49-205-65.78-217.49-171.78-12.512-106.29 65.94-205.5 172.2-218.01 106.55-12.55 206 66.1 218.54 172.61 12.57 106.81-66.26 206.5-173.03 219.07-107.07 12.6-206.99-66.42-219.59-173.45-12.637-107.32 66.58-207.49 173.86-220.12 107.58-12.665 207.98 66.739 220.64 174.28 12.695 107.84-66.899 208.48-174.7 221.17-108.08 12.73-208.97-67.06-221.69-175.11-12.752-108.35 67.22-209.47 175.53-222.22 108.61-12.79 209.97 67.38 222.75 175.94 12.81 108.87-67.54 210.47-176.36 223.28-109.12 12.84-210.96-67.7-223.8-176.78-12.877-109.38 67.86-211.46 177.19-224.33 109.64-12.9 211.96 68.02 224.86 177.61 12.93 109.89-68.18 212.45-178.03 225.38-110.15 12.97-212.95-68.33-225.91-178.44-12.992-110.41 68.5-213.44 178.86-226.43 110.66-13.03 213.94 68.65 226.96 179.28 13.05 110.91-68.82 214.43-179.69 227.48-111.18 13.08-214.94-68.98-228.01-180.11-13.117-111.43 69.13-215.43 180.52-228.54 111.69-13.14 215.93 69.3 229.07 180.95 13.17 111.94-69.46 216.42-181.37 229.59-112.2 13.2-216.91-69.62-230.11-181.78-13.233-112.46 69.78-217.42 182.2-230.65 112.71-13.26 217.91 69.94 231.16 182.62 13.3 112.97-70.09 218.4-183.03 231.69-113.22 13.32-218.9-70.26-232.22-183.45-13.348-113.48 70.42-219.39 183.87-232.74 113.74-13.38 219.89 70.57 233.27 184.28 13.41 114-70.74 220.39-184.7 233.8-114.25 13.44-220.89-70.9-234.32-185.12-13.473-114.51 71.05-221.38 185.53-234.85 114.77-13.5 221.88 71.22 235.37 185.95 13.54 115.03-71.37 222.38-186.36 235.9-115.28 13.56-222.87-71.53-236.43-186.78-13.588-115.54 71.697-223.37 187.2-236.95 115.8-13.62 223.87 71.85 237.48 187.61 13.65 116.05-72.01 224.36-188.03 238.01-116.31 13.68-224.86-72.18-238.53-188.45-13.713-116.56 72.331-225.35 188.86-239.06 116.82-13.74 225.85 72.5 239.59 189.28 13.77 117.08-72.66 226.35-189.7 240.11-117.34 13.8-226.84-72.81-240.64-190.11-13.828-117.59 72.974-227.34 190.53-241.16 117.85-13.86 227.84 73.13 241.69 190.94 13.89 118.11-73.29 228.34-191.36 242.22-118.37 13.92-228.83-73.45-242.74-191.78-13.953-118.62 73.608-229.33 192.19-243.27 118.88-13.98 229.82 73.77 243.8 192.61 14.01 119.14-73.93 230.32-193.03 244.33-119.39 14.03-230.82-74.1-244.85-193.45-14.068-119.65 74.252-231.31 193.86-245.38 119.91-14.09 231.81 74.42 245.9 194.28 14.13 120.17-74.57 232.31-194.69 246.43-120.42 14.16-232.8-74.73-246.96-195.11-14.184-120.68 74.895-233.3 195.53-247.48 120.94-14.22 233.8 75.05 248.01 195.94 14.25 121.19-75.21 234.3-196.36 248.54-121.45 14.27-234.79-75.37-249.06-196.78-14.309-121.71 75.529-235.29 197.19-249.59 121.96-14.33 235.78 75.69 250.12 197.62 14.36 122.21-75.86 236.27-198.03 250.63-122.48 14.4-236.78-76.01-251.17-198.44-14.424-122.73 76.173-237.27 198.86-251.69 122.99-14.46 237.77 76.33 252.22 199.28 14.49 123.24-76.49 238.26-199.7 252.74-123.5 14.51-238.75-76.65-253.26-200.11-14.549-123.76 76.806-239.26 200.53-253.8 124.01-14.57 239.75 76.97 254.32 200.95 14.6 124.27-77.13 240.24-201.37 254.84-124.52 14.64-240.74-77.29-255.37-201.77-14.664-124.79 77.45-241.24 202.2-255.9 125.04-14.7 241.73 77.6 256.42 202.61 14.73 125.3-77.77 242.23-203.03 256.95-125.55 14.75-242.73-77.93-257.48-203.45-14.779-125.81 78.094-243.22 203.87-258 126.07-14.81 243.72 78.25 258.53 204.28 14.84 126.33-78.41 244.22-204.7 259.06-126.58 14.87-244.71-78.57-259.58-205.12-14.904-126.84 78.727-245.21 205.53-260.11 127.09-14.93 245.71 78.89 260.63 205.95 14.97 127.35-79.04 246.2-206.36 261.16-127.61 14.99-246.7-79.21-261.69-206.78-15.02-127.86 79.371-247.19 207.2-262.21 128.12-15.05 247.69 79.53 262.74 207.61 15.08 128.38-79.69 248.19-208.03 263.27-128.64 15.11-248.69-79.85-263.79-208.45-15.145-128.89 80.005-249.18 208.86-264.32 129.15-15.17 249.68 80.17 264.85 209.28 15.2 129.41-80.33 250.18-209.7 265.37-129.67 15.24-250.67-80.48-265.9-210.11-15.26-129.92 80.648-251.17 210.53-266.42 130.18-15.29 251.67 80.8 266.95 210.94 15.32 130.44-80.97 252.16-211.36 267.48-130.69 15.35-252.66-81.13-268-211.78-15.385-130.95 81.282-253.15 212.19-268.53 131.21-15.41 253.65 81.45 269.06 212.61 15.44 131.47-81.61 254.15-213.03 269.59-131.72 15.47-254.64-81.77-270.11-213.45-15.5-131.98 81.926-255.14 213.86-270.64 132.24-15.52 255.64 82.09 271.16 214.28 15.56 132.49-82.24 256.14-214.69 271.69-132.75 15.59-256.63-82.4-272.22-215.11-15.615-133.01 82.569-257.13 215.53-272.74 133.26-15.65 257.62 82.72 273.27 215.95 15.68 133.51-82.89 258.11-216.36 273.79-133.78 15.71-258.62-83.05-274.32-216.78-15.74-134.03 83.203-259.11 217.19-274.85 134.29-15.77 259.61 83.37 275.37 217.62 15.8 134.54-83.52 260.1-218.03 275.89-134.8 15.83-260.59-83.68-276.42-218.44-15.856-135.06 83.846-261.1 218.87-276.95 135.31-15.89 261.59 84 277.47 219.28 15.92 135.57-84.16 262.09-219.7 278-135.82 15.95-262.58-84.33-278.52-220.11-15.981-136.09 84.48-263.09 220.53-279.06 136.34-16.01 263.57 84.64 279.58 220.95 16.03 136.6-84.81 264.07-221.37 280.1-136.85 16.07-264.57-84.96-280.63-221.78-16.096-137.11 85.124-265.06 222.2-281.15 137.37-16.13 265.56 85.28 281.68 222.61 16.16 137.62-85.44 266.06-223.03 282.21-137.88 16.19-266.55-85.6-282.74-223.45-16.211-138.14 85.767-267.05 223.87-283.26 138.39-16.25 267.55 85.92 283.79 224.28 16.27 138.65-86.08 268.04-224.7 284.32-138.91 16.3-268.54-86.25-284.84-225.12-16.336-139.16 86.401-269.03 225.53-285.37 139.42-16.36 269.53 86.57 285.89 225.95 16.4 139.68-86.72 270.03-226.36 286.42-139.94 16.43-270.53-86.88-286.95-226.78-16.451-140.19 87.045-271.02 227.2-287.47 140.45-16.49 271.52 87.2 288 227.61 16.51 140.71-87.36 272.02-228.03 288.53-140.96 16.54-272.51-87.52-289.05-228.45-16.576-141.22 87.678-273.01 228.86-289.58 141.48-16.6 273.51 87.84 290.11 229.28 16.63 141.74-88.01 274-229.7 290.63-141.99 16.67-274.5-88.16-291.16-230.11-16.692-142.25 88.322-274.99 230.53-291.68 142.51-16.73 275.49 88.48 292.21 230.94 16.75 142.77-88.64 275.99-231.36 292.74-143.02 16.78-276.49-88.8-293.26-231.78-16.817-143.28 88.956-276.98 232.19-293.79 143.53-16.84 277.48 89.12 294.32 232.61 16.87 143.79-89.28 277.98-233.03 294.84-144.05 16.91-278.47-89.43-295.37-233.44-16.932-144.3 89.599-278.97 233.86-295.89 144.56-16.97 279.47 89.75 296.42 234.28 16.99 144.81-89.92 279.95-234.69 296.94-145.08 17.02-280.46-90.08-297.48-235.11-17.047-145.33 90.243-280.95 235.53-298 145.59-17.08 281.45 90.4 298.53 235.95 17.11 145.84-90.56 281.94-236.36 299.05-146.11 17.14-282.44-90.72-299.58-236.78-17.172-146.36 90.877-282.94 237.2-300.11 146.61-17.2 283.43 91.04 300.62 237.62 17.23 146.87-91.19 283.93-238.03 301.15-147.12 17.26-284.42-91.36-301.68-238.44-17.287-147.39 91.52-284.93 238.87-302.21 147.64-17.32 285.41 91.68 302.73 239.28 17.35 147.9-91.84 285.91-239.7 303.26-148.15 17.38-286.41-92-303.78-240.12-17.412-148.41 92.154-286.9 240.53-304.31 148.67-17.44 287.4 92.32 304.84 240.95 17.46 148.92-92.48 287.9-241.37 305.36-149.18 17.5-288.39-92.63-305.89-241.78-17.527-149.44 92.798-288.89 242.2-306.41 149.69-17.56 289.39 92.95 306.94 242.61 17.59 149.95-93.11 289.89-243.03 307.47-150.21 17.62-290.38-93.28-307.99-243.45-17.653-150.46 93.431-290.88 243.86-308.52 150.72-17.68 291.37 93.6 309.05 244.28 17.71 150.98-93.76 291.87-244.7 309.58-151.24 17.73-292.37-93.92-310.1-245.12-17.768-151.49 94.075-292.86 245.53-310.62 151.75-17.8 293.36 94.23 311.15 245.94 17.83 152.01-94.39 293.86-246.36 311.68-152.26 17.86-294.35-94.55-312.21-246.78-17.883-152.52 94.718-294.85 247.2-312.73 152.78-17.918 295.35 94.87 313.26 247.61 17.95 153.04-95.04 295.84-248.03 313.79-153.29 17.97-296.34-95.2-314.31-248.45-18.008-153.55 95.352-296.83 248.86-314.84 153.81-18.033 297.33 95.52 315.36 249.28 18.07 154.06-95.67 297.83-249.69 315.89-154.32 18.1-298.33-95.83-316.42-250.11-18.123-154.58 95.996-298.82 250.53-316.94 154.83-18.158 299.32 96.15 317.47 250.94 18.19 155.09-96.31 299.82-251.36 318-155.35 18.21-300.31-96.47-318.52-251.78-18.248-155.6 96.629-300.81 252.19-319.05 155.86-18.273 301.31 96.79 319.58 252.62 18.3 156.11-96.96 301.79-253.03 320.09-156.38 18.34-302.3-97.11-320.63-253.44-18.363-156.63 97.273-302.79 253.86-321.15 156.89-18.398 303.29 97.43 321.68 254.28 18.43 157.14-97.59 303.78-254.69 322.2-157.4 18.45-304.28-97.75-322.74-255.11-18.479-157.66 97.917-304.78 255.54-323.26 157.91-18.513 305.27 98.07 323.78 255.95 18.54 158.17-98.23 305.77-256.37 324.31-158.42 18.57-306.26-98.4-324.83-256.78-18.604-158.69 98.55-306.77 257.2-325.37 158.94-18.629 307.26 98.72 325.88 257.62 18.67 159.2-98.87 307.75-258.03 326.41-159.45 18.69-308.25-99.03-326.94-258.45-18.719-159.71 99.194-308.74 258.87-327.46 159.97-18.754 309.24 99.35 327.99 259.28 18.78 160.22-99.51 309.74-259.7 328.52-160.48 18.81-310.24-99.67-329.04-260.12-18.844-160.73 99.828-310.73 260.53-329.57 160.99-18.869 311.23 99.99 330.09 260.95 18.91 161.25-100.14 311.73-261.36 330.62-161.51 18.93-312.22-100.31-331.15-261.78-18.959-161.76 100.47-312.72 262.2-331.67 162.02-18.994 313.21 100.63 332.2 262.61 19.02 162.28-100.79 313.71-263.03 332.73-162.54 19.05-314.21-100.95-333.25-263.45-19.084-162.79 101.1-314.7 263.86-333.78 163.05-19.109 315.2 101.27 334.31 264.28 19.14 163.31-101.43 315.7-264.7 334.83-163.56 19.17-316.19-101.58-335.36-265.11-19.199-163.82 101.75-316.69 265.53-335.88 164.08-19.234 317.19 101.9 336.41 265.94 19.26 164.34-102.07 317.69-266.36 336.94-164.59 19.29-318.18-102.23-337.46-266.78-19.325-164.85 102.38-318.68 267.19-337.99 165.11-19.349 319.17 102.55 338.52 267.61 19.38 165.36-102.71 319.67-268.03 339.05-165.62 19.4-320.17-102.87-339.57-268.45-19.44-165.88 103.03-320.66 268.86-340.1 166.13-19.464 321.16 103.19 340.62 269.28 19.5 166.39-103.34 321.66-269.69 341.15-166.65 19.53-322.15-103.5-341.68-270.11-19.555-166.9 103.67-322.65 270.53-342.2 167.16-19.59 323.15 103.82 342.73 270.94 19.62 167.42-103.99 323.64-271.36 343.26-167.68 19.65-324.14-104.15-343.78-271.78-19.68-167.93 104.3-324.63 272.19-344.31 168.19-19.705 325.13 104.47 344.84 272.62 19.73 168.44-104.63 325.62-273.03 345.35-168.7 19.77-326.13-104.78-345.89-273.44-19.795-168.96 104.95-326.62 273.86-346.41 169.22-19.83 327.12 105.1 346.94 274.28 19.86 169.47-105.26 327.61-274.7 347.46-169.72 19.89-328.1-105.43-347.98-275.11-19.92-169.99 105.58-328.61 275.53-348.52 170.24-19.945 329.1 105.75 349.04 275.95 19.97 170.5-105.91 329.59-276.37 349.56-170.75 20.01-330.09-106.06-350.09-276.78-20.035-171.01 106.22-330.58 277.2-350.62 171.26-20.06 331.08 106.39 351.14 277.62 20.1 171.52-106.54 331.58-278.03 351.67-171.78 20.13-332.08-106.7-352.2-278.45-20.15-172.03 106.87-332.57 278.87-352.72 172.29-20.185 333.07 107.02 353.25 279.28 20.21 172.55-107.18 333.57-279.7 353.78-172.81 20.24-334.06-107.35-354.3-280.12-20.276-173.06 107.5-334.56 280.53-354.83 173.32-20.3 335.06 107.67 355.35 280.95 20.34 173.58-107.82 335.55-281.36 355.88-173.84 20.37-336.05-107.98-356.41-281.78-20.391-174.09 108.14-336.54 282.2-356.93 174.35-20.426 337.04 108.3 357.46 282.61 20.45 174.61-108.46 337.54-283.03 357.99-174.86 20.48-338.04-108.62-358.51-283.45-20.52-175.12 108.78-338.53 283.86-359.04 175.38-20.541 339.03 108.94 359.57 284.28 20.57 175.64-109.11 339.53-284.7 360.09-175.89 20.61-340.02-109.26-360.62-285.11-20.63-176.15 109.42-340.52 285.53-361.14 176.41-20.666 341.01 109.58 361.67 285.94 20.69 176.66-109.74 341.51-286.36 362.2-176.92 20.72-342.01-109.9-362.72-286.78-20.76-177.18 110.06-342.5 287.19-363.25 177.43-20.781 343 110.22 363.78 287.61 20.81 177.69-110.38 343.5-288.03 364.31-177.95 20.84-343.99-110.54-364.83-288.45-20.87-178.2 110.7-344.49 288.86-365.36 178.46-20.896 344.99 110.86 365.88 289.28 20.93 178.72-111.02 345.49-289.69 366.41-178.98 20.96-345.98-111.18-366.94-290.11-20.99-179.23 111.34-346.48 290.53-367.46 179.49-21.021 346.97 111.5 367.99 290.95 21.05 179.74-111.66 347.46-291.36 368.51-180 21.08-347.97-111.82-369.04-291.78-21.11-180.26 111.98-348.46 292.19-369.57 180.52-21.136 348.96 112.14 370.09 292.62 21.17 180.77-112.29 349.45-293.03 370.61-181.02 21.2-349.94-112.46-371.14-293.44-21.23-181.29 112.62-350.45 293.87-371.67 181.54-21.261 350.94 112.78 372.19 294.28 21.29 181.79-112.94 351.43-294.7 372.72-182.05 21.32-351.93-113.1-373.24-295.11-21.35-182.32 113.25-352.44 295.53-373.78 182.56-21.377 352.92 113.42 374.3 295.95 21.4 182.82-113.58 353.42-296.37 374.82-183.08 21.44-353.92-113.73-375.35-296.78-21.47-183.33 113.9-354.41 297.2-375.87 183.59-21.502 354.91 114.05 376.4 297.61 21.53 183.85-114.21 355.41-298.03 376.93-184.11 21.56-355.9-114.38-377.46-298.45-21.58-184.36 114.54-356.4 298.87-377.98 184.62-21.617 356.9 114.7 378.51 299.28 12.61 107.68-28.03 217.35-107.73 290.84" transform="matrix(.88172 0 0 .88036 133.94 50.507)" stroke="#6a6a6a" stroke-width=".34051" fill="none"/>
    </g>
  </g>
  <metadata>
    <rdf:RDF>
      <cc:Work>
        <dc:format>image/svg+xml</dc:format>
        <dc:type rdf:resource="http://purl.org/dc/dcmitype/StillImage"/>
        <cc:license rdf:resource="http://creativecommons.org/licenses/publicdomain/"/>
        <dc:publisher>
          <cc:Agent rdf:about="http://openclipart.org/">
            <dc:title>Openclipart</dc:title>
          </cc:Agent>
        </dc:publisher>
        <dc:title>45 rpm</dc:title>
        <dc:date>2008-12-26T00:14:04</dc:date>
        <dc:description>an old 45 rpm vinyl single without a label.</dc:description>
        <dc:source>http://openclipart.org/detail/20853/45-rpm.svg-by-cafuego</dc:source>
        <dc:creator>
          <cc:Agent>
            <dc:title>cafuego</dc:title>
          </cc:Agent>
        </dc:creator>
        <dc:subject>
          <rdf:Bag>
            <rdf:li>45 rpm</rdf:li>
            <rdf:li>clip art</rdf:li>
            <rdf:li>clipart</rdf:li>
            <rdf:li>disc jockey</rdf:li>
            <rdf:li>dj</rdf:li>
            <rdf:li>how i did it</rdf:li>
            <rdf:li>image</rdf:li>
            <rdf:li>media</rdf:li>
            <rdf:li>music</rdf:li>
            <rdf:li>old skool</rdf:li>
            <rdf:li>png</rdf:li>
            <rdf:li>public domain</rdf:li>
            <rdf:li>record</rdf:li>
            <rdf:li>single</rdf:li>
            <rdf:li>svg</rdf:li>
            <rdf:li>vinyl</rdf:li>
          </rdf:Bag>
        </dc:subject>
      </cc:Work>
      <cc:License rdf:about="http://creativecommons.org/licenses/publicdomain/">
        <cc:permits rdf:resource="http://creativecommons.org/ns#Reproduction"/>
        <cc:permits rdf:resource="http://creativecommons.org/ns#Distribution"/>
        <cc:permits rdf:resource="http://creativecommons.org/ns#DerivativeWorks"/>
      </cc:License>
    </rdf:RDF>
  </metadata>
</svg>
